<?xml version="1.0" encoding="UTF-8"?>
<svg id="Layer_1" xmlns="http://www.w3.org/2000/svg" version="1.1" viewBox="0 0 612 612">
  <!-- Generator: Adobe Illustrator 29.5.1, SVG Export Plug-In . SVG Version: 2.1.0 Build 141)  -->
  <defs>
    <style>
      .st0 {
        fill: #231f20;
      }

      .st1 {
        fill: #0097d6;
      }

      .st2 {
        fill: #00628e;
      }
    </style>
  </defs>
  <g>
    <path class="st0" d="M123.94,425.49h-30.95l-44.18-59.3h-20.08v59.3H1.33v-175.3h51.98c23.15,0,36.62,9.45,43.71,17.48,9.21,10.16,14.18,24.33,14.18,40.64s-4.96,30.24-14.18,40.4c-4.25,4.73-10.87,10.16-20.32,13.47l47.25,63.32ZM53.3,341.62c11.34,0,19.84-3.31,25.28-9.45,6.61-7.09,7.8-17.01,7.8-23.86s-1.18-17.01-7.8-24.1c-5.43-6.14-13.94-9.21-25.28-9.21h-24.57v66.62h24.57Z"/>
    <path class="st0" d="M244.18,387.93h-62.37l-14.88,37.56h-30.24l76.31-183.33,76.07,183.33h-30l-14.88-37.56ZM234.26,363.36l-21.26-53.39-21.26,53.39h42.52Z"/>
    <path class="st0" d="M410.25,387.93h-62.37l-14.88,37.56h-30.24l76.31-183.33,76.07,183.33h-30l-14.88-37.56ZM400.33,363.36l-21.26-53.39-21.26,53.39h42.52Z"/>
    <path class="st0" d="M473.08,425.49l90.01-147.89h-70.4v-27.4h119.31l-90.01,147.89h87.65v27.4h-136.55Z"/>
  </g>
  <polygon class="st1" points="298.31 72.76 134.15 237.93 232.8 196.76 297.43 309.61 365.33 196.06 462.46 237.93 298.31 72.76"/>
  <polygon class="st2" points="366.68 196.76 301.73 302.47 297.43 309.61 232.81 196.76 298.3 72.75 366.68 196.76"/>
  <g>
    <g>
      <path class="st0" d="M19.57,564.82l-3-6.33H6.93l-3.03,6.33H1.71l8.89-18.79h2.33l8.92,18.79h-2.27ZM11.78,548.18l-4.07,8.62h8.05l-3.98-8.62Z"/>
      <path class="st0" d="M38.29,564.82h-5.58v-18.79h4.88c3.76,0,5.94.41,7.91,1.48,3.09,1.65,4.71,4.45,4.71,7.98,0,5.42-3.81,9.33-11.92,9.33ZM44.35,548.96c-1.57-.86-3.53-1.22-6.68-1.22h-2.89v15.38h2.89c3.67,0,5.8-.48,7.46-1.68,1.91-1.4,2.97-3.56,2.97-6.03,0-2.8-1.37-5.16-3.76-6.46Z"/>
      <path class="st0" d="M67.58,564.82h-5.58v-18.79h4.88c3.76,0,5.94.41,7.91,1.48,3.09,1.65,4.71,4.45,4.71,7.98,0,5.42-3.81,9.33-11.92,9.33ZM73.63,548.96c-1.57-.86-3.53-1.22-6.68-1.22h-2.89v15.38h2.89c3.67,0,5.8-.48,7.46-1.68,1.91-1.4,2.97-3.56,2.97-6.03,0-2.8-1.37-5.16-3.76-6.46Z"/>
      <path class="st0" d="M126.04,564.82h-2.67l-4.6-15.4-4.54,15.4h-2.69l-5.92-18.79h2.13l5.1,16.34,4.96-16.34h1.96l4.96,16.34,5.1-16.34h2.13l-5.94,18.79Z"/>
      <path class="st0" d="M142.82,564.82v-18.79h2.07v18.79h-2.07Z"/>
      <path class="st0" d="M171.99,564.82l-12.34-16.52v16.52h-2.07v-18.79h2.81l11.61,15.58v-15.58h2.08v18.79h-2.08Z"/>
      <path class="st0" d="M197.41,565.16c-6.34,0-11.27-4.27-11.27-9.76s4.82-9.69,10.99-9.69c4.51,0,8.44,2.14,9.81,5.34h-2.33c-1.43-2.29-4.12-3.61-7.32-3.61-5.1,0-9.06,3.48-9.06,8.01s4.01,7.98,9.09,7.98c4.09,0,7.63-2.59,8.39-5.57h-11.58v-1.71h14.08c-.31,4.73-4.71,9-10.8,9Z"/>
      <path class="st0" d="M224.87,565.16c-3.73,0-6.28-2.21-6.48-5.59h2.22c.31,2.52,1.99,3.86,4.32,3.86s4.09-1.58,4.09-3.74-1.06-2.95-4.63-3.94c-2.41-.66-3.06-.94-3.87-1.65-.93-.79-1.46-2.03-1.46-3.33,0-2.92,2.41-5.06,5.75-5.06s5.8,2.04,5.8,5.08h-2.16c0-2.03-1.6-3.35-3.7-3.35s-3.59,1.4-3.59,3.28c0,.86.39,1.73.98,2.18.53.43,1.18.66,3.06,1.17,2.13.59,3,.94,3.84,1.5,1.32.89,2.07,2.36,2.07,4.02,0,3.2-2.66,5.57-6.25,5.57Z"/>
      <path class="st0" d="M263.36,547.74v17.08h-2.07v-17.08h-4.74v-1.71h11.56v1.71h-4.74Z"/>
      <path class="st0" d="M287.79,565.16c-6.09,0-10.96-4.37-10.96-9.84s5.02-9.61,10.96-9.61,10.94,4.37,10.94,9.74-4.94,9.71-10.94,9.71ZM287.79,547.44c-4.8,0-8.86,3.63-8.86,7.93s3.98,8.06,8.86,8.06,8.83-3.61,8.83-7.96-4.01-8.03-8.83-8.03Z"/>
      <path class="st0" d="M333.89,558.55v6.28h-2.07v-6.28l-7.18-12.51h2.3l5.89,10.53,6.03-10.53h2.27l-7.24,12.51Z"/>
      <path class="st0" d="M360.54,565.16c-6.09,0-10.96-4.37-10.96-9.84s5.02-9.61,10.96-9.61,10.94,4.37,10.94,9.74-4.94,9.71-10.94,9.71ZM360.54,547.44c-4.8,0-8.86,3.63-8.86,7.93s3.98,8.06,8.86,8.06,8.83-3.61,8.83-7.96-4.01-8.03-8.83-8.03Z"/>
      <path class="st0" d="M390.3,565.16c-4.18,0-7.04-2.29-7.04-7.4v-11.72h2.07v11.72c0,3.84,1.74,5.67,4.99,5.67s4.96-1.83,4.96-5.67v-11.72h2.07v11.72c0,5.11-2.86,7.4-7.07,7.4Z"/>
      <path class="st0" d="M417.99,557.81l5.8,7.02h-2.58l-6.98-8.51c5.8,0,7.77-.92,7.77-4.3,0-3.13-2.13-4.27-6.96-4.27h-2.92v17.08h-2.08v-18.79h5.13c6.51,0,8.92,2.14,8.92,6.05,0,3.33-2.13,5.34-6.11,5.72Z"/>
      <path class="st0" d="M457.26,564.82h-5.58v-18.79h4.88c3.76,0,5.94.41,7.91,1.48,3.09,1.65,4.71,4.45,4.71,7.98,0,5.42-3.81,9.33-11.92,9.33ZM463.32,548.96c-1.57-.86-3.53-1.22-6.68-1.22h-2.89v15.38h2.89c3.67,0,5.8-.48,7.46-1.68,1.91-1.4,2.97-3.56,2.97-6.03,0-2.8-1.37-5.16-3.76-6.46Z"/>
      <path class="st0" d="M488.91,557.81l5.8,7.02h-2.58l-6.98-8.51c5.8,0,7.77-.92,7.77-4.3,0-3.13-2.13-4.27-6.96-4.27h-2.92v17.08h-2.07v-18.79h5.13c6.51,0,8.92,2.14,8.92,6.05,0,3.33-2.13,5.34-6.11,5.72Z"/>
      <path class="st0" d="M506.41,564.82v-18.79h11.33v1.71h-9.25v6.73h8.95v1.7h-8.95v6.94h9.25v1.7h-11.33Z"/>
      <path class="st0" d="M545.91,564.82l-3-6.33h-9.65l-3.03,6.33h-2.19l8.89-18.79h2.33l8.92,18.79h-2.27ZM538.11,548.18l-4.07,8.62h8.05l-3.98-8.62Z"/>
      <path class="st0" d="M578.48,564.82v-16.72l-7.8,16.72h-1.79l-7.77-16.72v16.72h-2.07v-18.79h3.23l7.54,15.99,7.52-15.99h3.23v18.79h-2.08Z"/>
      <path class="st0" d="M598.2,565.16c-3.73,0-6.28-2.21-6.48-5.59h2.22c.31,2.52,1.99,3.86,4.32,3.86s4.09-1.58,4.09-3.74-1.06-2.95-4.63-3.94c-2.41-.66-3.06-.94-3.87-1.65-.93-.79-1.46-2.03-1.46-3.33,0-2.92,2.41-5.06,5.75-5.06s5.8,2.04,5.8,5.08h-2.16c0-2.03-1.6-3.35-3.7-3.35s-3.59,1.4-3.59,3.28c0,.86.39,1.73.98,2.18.53.43,1.18.66,3.06,1.17,2.13.59,3,.94,3.84,1.5,1.32.89,2.08,2.36,2.08,4.02,0,3.2-2.66,5.57-6.25,5.57Z"/>
    </g>
    <g>
      <path class="st0" d="M38.93,517.46v-28.01H6.3v28.01H0v-59.65h6.3v26.23h32.63v-26.23h6.3v59.65h-6.3Z"/>
      <path class="st0" d="M119.44,518.51c-18.49,0-33.31-13.89-33.31-31.24s15.25-30.51,33.31-30.51,33.22,13.89,33.22,30.91-14.99,30.84-33.22,30.84ZM119.44,462.25c-14.57,0-26.92,11.54-26.92,25.18s12.1,25.59,26.92,25.59,26.83-11.46,26.83-25.26-12.18-25.51-26.83-25.51Z"/>
      <path class="st0" d="M193.55,517.46v-59.65h6.3v54.24h26.07v5.41h-32.37Z"/>
      <path class="st0" d="M263.58,517.46v-59.65h6.3v59.65h-6.3Z"/>
      <path class="st0" d="M330.46,517.46h-16.95v-59.65h14.82c11.42,0,18.06,1.29,24.02,4.68,9.37,5.25,14.31,14.13,14.31,25.35,0,17.19-11.58,29.62-36.2,29.62ZM348.85,467.09c-4.77-2.74-10.73-3.87-20.27-3.87h-8.78v48.84h8.78c11.16,0,17.63-1.53,22.66-5.33,5.79-4.44,9.03-11.3,9.03-19.13,0-8.88-4.17-16.39-11.42-20.5Z"/>
      <path class="st0" d="M453.3,517.46l-9.11-20.1h-29.3l-9.2,20.1h-6.64l27-59.65h7.07l27.09,59.65h-6.9ZM429.62,464.59l-12.35,27.36h24.45l-12.1-27.36Z"/>
      <path class="st0" d="M513.7,497.52v19.94h-6.3v-19.94l-21.81-39.71h6.98l17.89,33.42,18.31-33.42h6.9l-21.98,39.71Z"/>
      <path class="st0" d="M586.8,518.51c-11.33,0-19.08-7.02-19.68-17.76h6.73c.94,7.99,6.05,12.27,13.12,12.27s12.43-5,12.43-11.86-3.24-9.36-14.05-12.51c-7.33-2.1-9.28-2.98-11.76-5.24-2.81-2.5-4.43-6.46-4.43-10.58,0-9.28,7.33-16.06,17.46-16.06s17.63,6.46,17.63,16.15h-6.56c0-6.46-4.86-10.65-11.24-10.65s-10.9,4.44-10.9,10.41c0,2.75,1.19,5.49,2.98,6.94,1.62,1.37,3.58,2.1,9.28,3.71,6.47,1.86,9.11,2.98,11.67,4.76,4,2.83,6.3,7.51,6.3,12.75,0,10.17-8.09,17.68-19,17.68Z"/>
    </g>
  </g>
  <polygon class="st1" points="301.73 302.47 297.43 309.61 293.39 302.61 298.31 72.76 301.73 302.47"/>
  <polygon class="st1" points="301.73 302.47 297.43 309.61 293.39 302.61 298.31 72.76 301.73 302.47"/>
</svg>